<svg xmlns="http://www.w3.org/2000/svg" width="1600" height="930" viewBox="0 0 1600 930">
<defs>
  <linearGradient id="bg" x1="0" y1="0" x2="1" y2="1"><stop stop-color="#071a2b"/><stop offset="1" stop-color="#102f47"/></linearGradient>
  <linearGradient id="card" x1="0" y1="0" x2="0" y2="1"><stop stop-color="#173c59"/><stop offset="1" stop-color="#0c253a"/></linearGradient>
  <filter id="shadow"><feDropShadow dx="0" dy="8" stdDeviation="10" flood-opacity=".35"/></filter>
  <marker id="arrow" markerWidth="10" markerHeight="10" refX="8" refY="3" orient="auto"><path d="M0,0 L0,6 L9,3 z" fill="#79d7ff"/></marker>
</defs>
<rect width="1600" height="930" rx="24" fill="url(#bg)"/>
<text x="60" y="70" fill="#f4fbff" font-family="Segoe UI,Arial" font-size="36" font-weight="700">Industry Grade Project 1 — Visual DevSecOps Delivery Flow</text>
<text x="60" y="108" fill="#9cdcf6" font-family="Segoe UI,Arial" font-size="18">Retail Java WAR: Jenkins → Docker → Ansible → ECR → Kubernetes → AWS observability</text>

<g font-family="Segoe UI,Arial" filter="url(#shadow)">
<g transform="translate(60 170)"><rect width="220" height="115" rx="18" fill="url(#card)" stroke="#5fbde3"/><text x="110" y="42" text-anchor="middle" fill="#fff" font-size="23" font-weight="700">GitHub</text><text x="110" y="75" text-anchor="middle" fill="#bcecff" font-size="16">Source + POM + JSP</text><text x="110" y="99" text-anchor="middle" fill="#bcecff" font-size="16">Docker/K8s artifacts</text></g>
<g transform="translate(330 170)"><rect width="220" height="115" rx="18" fill="url(#card)" stroke="#5fbde3"/><text x="110" y="42" text-anchor="middle" fill="#fff" font-size="23" font-weight="700">Jenkins</text><text x="110" y="75" text-anchor="middle" fill="#bcecff" font-size="16">Checkout + clean install</text><text x="110" y="99" text-anchor="middle" fill="#bcecff" font-size="16">Archive WAR + trigger CD</text></g>
<g transform="translate(600 170)"><rect width="220" height="115" rx="18" fill="url(#card)" stroke="#5fbde3"/><text x="110" y="42" text-anchor="middle" fill="#fff" font-size="23" font-weight="700">Security Gate</text><text x="110" y="72" text-anchor="middle" fill="#bcecff" font-size="15">Veracode • Nexus IQ</text><text x="110" y="96" text-anchor="middle" fill="#bcecff" font-size="15">Contrast • Aqua • Burp</text></g>
<g transform="translate(870 170)"><rect width="220" height="115" rx="18" fill="url(#card)" stroke="#5fbde3"/><text x="110" y="42" text-anchor="middle" fill="#fff" font-size="23" font-weight="700">Docker</text><text x="110" y="75" text-anchor="middle" fill="#bcecff" font-size="16">Tomcat image + WAR</text><text x="110" y="99" text-anchor="middle" fill="#bcecff" font-size="16">Local container validation</text></g>
<g transform="translate(1140 170)"><rect width="220" height="115" rx="18" fill="url(#card)" stroke="#5fbde3"/><text x="110" y="42" text-anchor="middle" fill="#fff" font-size="23" font-weight="700">Amazon ECR</text><text x="110" y="75" text-anchor="middle" fill="#bcecff" font-size="16">Immutable image tag</text><text x="110" y="99" text-anchor="middle" fill="#bcecff" font-size="16">Registry promotion</text></g>

<g transform="translate(195 410)"><rect width="250" height="120" rx="18" fill="url(#card)" stroke="#ffbd59"/><text x="125" y="42" text-anchor="middle" fill="#fff" font-size="23" font-weight="700">Ansible Controller</text><text x="125" y="76" text-anchor="middle" fill="#ffe1a5" font-size="16">Copy WAR • build/tag/push</text><text x="125" y="101" text-anchor="middle" fill="#ffe1a5" font-size="16">Apply deployment playbooks</text></g>
<g transform="translate(540 385)"><rect width="510" height="185" rx="22" fill="#102a3f" stroke="#6fe0a9" stroke-width="2"/><text x="255" y="38" text-anchor="middle" fill="#fff" font-size="24" font-weight="700">Amazon EKS / Kubernetes</text><rect x="25" y="70" width="140" height="78" rx="14" fill="#17486a"/><rect x="185" y="70" width="140" height="78" rx="14" fill="#17486a"/><rect x="345" y="70" width="140" height="78" rx="14" fill="#17486a"/><text x="95" y="103" text-anchor="middle" fill="#fff" font-size="18">Pod 1</text><text x="255" y="103" text-anchor="middle" fill="#fff" font-size="18">Pod 2</text><text x="415" y="103" text-anchor="middle" fill="#fff" font-size="18">Pod 3</text><text x="255" y="172" text-anchor="middle" fill="#9cf1c3" font-size="16">Deployment → ReplicaSet → 3 replicas</text></g>
<g transform="translate(1140 410)"><rect width="280" height="120" rx="18" fill="url(#card)" stroke="#6fe0a9"/><text x="140" y="42" text-anchor="middle" fill="#fff" font-size="23" font-weight="700">Service / ALB</text><text x="140" y="75" text-anchor="middle" fill="#bff5d5" font-size="16">Stable URL + health checks</text><text x="140" y="100" text-anchor="middle" fill="#bff5d5" font-size="16">Traffic across healthy Pods</text></g>

<g transform="translate(155 685)"><rect width="300" height="120" rx="18" fill="url(#card)" stroke="#cfa6ff"/><text x="150" y="42" text-anchor="middle" fill="#fff" font-size="22" font-weight="700">ADOT Collector</text><text x="150" y="75" text-anchor="middle" fill="#e5d1ff" font-size="16">Scrape app + cluster metrics</text><text x="150" y="100" text-anchor="middle" fill="#e5d1ff" font-size="16">Remote-write with SigV4</text></g>
<g transform="translate(525 685)"><rect width="300" height="120" rx="18" fill="url(#card)" stroke="#cfa6ff"/><text x="150" y="42" text-anchor="middle" fill="#fff" font-size="22" font-weight="700">Amazon Managed</text><text x="150" y="70" text-anchor="middle" fill="#fff" font-size="22" font-weight="700">Prometheus</text><text x="150" y="100" text-anchor="middle" fill="#e5d1ff" font-size="16">Metrics store + PromQL</text></g>
<g transform="translate(895 685)"><rect width="300" height="120" rx="18" fill="url(#card)" stroke="#ff9f7a"/><text x="150" y="42" text-anchor="middle" fill="#fff" font-size="22" font-weight="700">Amazon Managed</text><text x="150" y="70" text-anchor="middle" fill="#fff" font-size="22" font-weight="700">Grafana</text><text x="150" y="100" text-anchor="middle" fill="#ffd2c0" font-size="16">Dashboards + alerts</text></g>
<g transform="translate(1265 685)"><rect width="260" height="120" rx="18" fill="url(#card)" stroke="#ff7676"/><text x="130" y="42" text-anchor="middle" fill="#fff" font-size="22" font-weight="700">SNS / SIEM</text><text x="130" y="75" text-anchor="middle" fill="#ffd0d0" font-size="16">Notify • investigate</text><text x="130" y="100" text-anchor="middle" fill="#ffd0d0" font-size="16">Rollback / contain</text></g>
</g>

<g stroke="#79d7ff" stroke-width="4" fill="none" marker-end="url(#arrow)">
<path d="M280 228 H330"/><path d="M550 228 H600"/><path d="M820 228 H870"/><path d="M1090 228 H1140"/>
<path d="M1250 285 V350 H795 V385"/><path d="M445 470 H540"/><path d="M1050 470 H1140"/>
<path d="M795 570 V625 H305 V685"/><path d="M455 745 H525"/><path d="M825 745 H895"/><path d="M1195 745 H1265"/>
</g>
<text x="60" y="885" fill="#9ccbe0" font-family="Segoe UI,Arial" font-size="15">Visual learning diagram — original Word evidence remains preserved; AWS monitoring layer is a clearly labeled modernization extension.</text>
</svg>